<svg width="128" height="128" viewBox="0 0 128 128" fill="none" xmlns="http://www.w3.org/2000/svg">
<circle cx="64" cy="64" r="50" fill="black"/>
<path d="M54.648 77C55.056 75.296 55.644 73.388 56.412 71.276C57.18 69.164 58.032 66.968 58.968 64.688H56.988C56.796 64.688 56.7 64.616 56.7 64.472C56.7 64.328 56.808 64.136 57.024 63.896C57.24 63.632 57.492 63.404 57.78 63.212C58.068 63.02 58.308 62.924 58.5 62.924H59.724C60.492 61.076 61.26 59.312 62.028 57.632C62.796 55.952 63.6 54.488 64.44 53.24C63.168 53.408 61.86 53.672 60.516 54.032C59.172 54.368 57.972 54.8 56.916 55.328C55.86 55.832 55.116 56.444 54.684 57.164C54.66 57.236 54.612 57.272 54.54 57.272C54.492 57.272 54.444 57.224 54.396 57.128C54.372 57.032 54.372 56.924 54.396 56.804C54.636 56.18 54.936 55.58 55.296 55.004C55.656 54.428 56.004 53.972 56.34 53.636C56.868 53.084 57.588 52.688 58.5 52.448C59.412 52.208 60.348 52.052 61.308 51.98C62.292 51.908 63.132 51.872 63.828 51.872H70.956C71.796 51.872 72.54 51.848 73.188 51.8C73.86 51.728 74.424 51.692 74.88 51.692C75.624 51.692 76.056 51.872 76.176 52.232C76.2 52.328 76.212 52.424 76.212 52.52C76.236 52.592 76.248 52.688 76.248 52.808C76.248 53.288 76.14 53.84 75.924 54.464C75.708 55.064 75.468 55.652 75.204 56.228C74.964 56.78 74.772 57.236 74.628 57.596C74.604 57.716 74.532 57.8 74.412 57.848C74.316 57.896 74.22 57.92 74.124 57.92C74.004 57.92 73.896 57.896 73.8 57.848C73.728 57.8 73.704 57.644 73.728 57.38C73.776 57.092 73.836 56.768 73.908 56.408C73.98 56.048 74.016 55.736 74.016 55.472C74.016 54.704 73.668 54.116 72.972 53.708C72.276 53.276 71.472 53.06 70.56 53.06C69.888 53.06 69.336 53.12 68.904 53.24C68.496 53.336 68.148 53.588 67.86 53.996C67.116 55.028 66.36 56.36 65.592 57.992C64.824 59.624 64.092 61.268 63.396 62.924H71.388C71.46 62.924 71.412 63.068 71.244 63.356C71.1 63.644 70.908 63.944 70.668 64.256C70.452 64.544 70.26 64.688 70.092 64.688H62.64C62.376 65.336 62.04 66.176 61.632 67.208C61.248 68.216 60.864 69.296 60.48 70.448C60.096 71.6 59.772 72.692 59.508 73.724C59.268 74.732 59.148 75.56 59.148 76.208C59.148 76.568 59.196 76.832 59.292 77H54.648Z" fill="white"/>
<circle cx="64" cy="64" r="34.5" stroke="white" stroke-width="3"/>
</svg>
