<svg width="185" height="127" viewBox="0 0 185 127" fill="none" xmlns="http://www.w3.org/2000/svg">
<path d="M2.304 105C3.75467 98.9413 5.84533 92.1573 8.576 84.648C11.3067 77.1387 14.336 69.3307 17.664 61.224H10.624C9.94133 61.224 9.6 60.968 9.6 60.456C9.6 59.944 9.984 59.2613 10.752 58.408C11.52 57.4693 12.416 56.6587 13.44 55.976C14.464 55.2933 15.3173 54.952 16 54.952H20.352C23.0827 48.3813 25.8133 42.1093 28.544 36.136C31.2747 30.1627 34.1333 24.9573 37.12 20.52C32.5973 21.1173 27.9467 22.056 23.168 23.336C18.3893 24.5307 14.1227 26.0667 10.368 27.944C6.61333 29.736 3.968 31.912 2.432 34.472C2.34667 34.728 2.176 34.856 1.92 34.856C1.74933 34.856 1.57867 34.6853 1.408 34.344C1.32267 34.0027 1.32267 33.6187 1.408 33.192C2.26133 30.9733 3.328 28.84 4.608 26.792C5.888 24.744 7.12533 23.1227 8.32 21.928C10.1973 19.9653 12.7573 18.5573 16 17.704C19.2427 16.8507 22.5707 16.296 25.984 16.04C29.4827 15.784 32.4693 15.656 34.944 15.656H60.288C63.2747 15.656 65.92 15.5707 68.224 15.4C70.6133 15.144 72.6187 15.016 74.24 15.016C76.8853 15.016 78.4213 15.656 78.848 16.936C78.9333 17.2773 78.976 17.6187 78.976 17.96C79.0613 18.216 79.104 18.5573 79.104 18.984C79.104 20.6907 78.72 22.6533 77.952 24.872C77.184 27.0053 76.3307 29.096 75.392 31.144C74.5387 33.1067 73.856 34.728 73.344 36.008C73.2587 36.4347 73.0027 36.7333 72.576 36.904C72.2347 37.0747 71.8933 37.16 71.552 37.16C71.1253 37.16 70.7413 37.0747 70.4 36.904C70.144 36.7333 70.0587 36.1787 70.144 35.24C70.3147 34.216 70.528 33.064 70.784 31.784C71.04 30.504 71.168 29.3947 71.168 28.456C71.168 25.7253 69.9307 23.6347 67.456 22.184C64.9813 20.648 62.1227 19.88 58.88 19.88C56.4907 19.88 54.528 20.0933 52.992 20.52C51.5413 20.8613 50.304 21.7573 49.28 23.208C46.6347 26.8773 43.9467 31.6133 41.216 37.416C38.4853 43.2187 35.8827 49.064 33.408 54.952H61.824C62.08 54.952 61.9093 55.464 61.312 56.488C60.8 57.512 60.1173 58.5787 59.264 59.688C58.496 60.712 57.8133 61.224 57.216 61.224H30.72C29.7813 63.528 28.5867 66.5147 27.136 70.184C25.7707 73.768 24.4053 77.608 23.04 81.704C21.6747 85.8 20.5227 89.6827 19.584 93.352C18.7307 96.936 18.304 99.88 18.304 102.184C18.304 103.464 18.4747 104.403 18.816 105H2.304ZM81.009 43.56C78.7903 42.792 77.681 41.3413 77.681 39.208C77.681 37.2453 78.449 35.24 79.985 33.192C81.6063 31.0587 83.3557 29.6933 85.233 29.096C85.6597 28.9253 86.001 28.84 86.257 28.84C86.5983 28.84 86.9397 28.84 87.281 28.84C88.7317 28.84 89.9263 29.2667 90.865 30.12C91.8037 30.9733 92.273 31.9547 92.273 33.064C92.273 34.6 91.4623 35.88 89.841 36.904C88.561 36.7333 87.3237 37.032 86.129 37.8C84.9343 38.568 83.8677 39.5067 82.929 40.616C82.0757 41.7253 81.4357 42.7067 81.009 43.56ZM58.993 105.768C57.8837 105.768 56.817 105.512 55.793 105C54.769 104.573 53.9157 103.677 53.233 102.312C52.2943 100.264 51.825 97.832 51.825 95.016C51.825 91.944 52.2943 88.5307 53.233 84.776C54.1717 80.936 55.409 77.0107 56.945 73C57.5423 71.5493 58.3103 69.7573 59.249 67.624C60.1877 65.4907 61.297 63.3573 62.577 61.224C63.857 59.0907 65.3077 57.3413 66.929 55.976C68.6357 54.5253 70.4703 53.8 72.433 53.8C73.3717 53.8 74.6943 53.8427 76.401 53.928C78.1077 54.0133 79.345 54.0133 80.113 53.928C79.601 54.2693 79.0037 54.952 78.321 55.976C77.6383 57 76.9983 58.0667 76.401 59.176C75.8037 60.2 75.3343 61.0107 74.993 61.608C72.7743 66.0453 70.6837 70.44 68.721 74.792C66.7583 79.144 65.265 83.3253 64.241 87.336C64.0703 88.0187 63.9423 88.7013 63.857 89.384C63.7717 90.0667 63.729 90.7067 63.729 91.304C63.729 93.7787 64.5397 95.016 66.161 95.016C66.8437 95.016 67.569 94.8453 68.337 94.504C69.1903 94.0773 70.1717 93.4373 71.281 92.584C73.2437 91.048 74.9503 89.2987 76.401 87.336C78.1077 85.1173 79.729 82.7707 81.265 80.296C82.801 77.736 84.1237 75.3893 85.233 73.256C85.6597 72.5733 85.9583 72.232 86.129 72.232C86.641 72.232 86.897 72.9573 86.897 74.408C86.897 75.0907 86.769 75.9013 86.513 76.84C86.3423 77.6933 86.0437 78.504 85.617 79.272C84.4223 81.32 83.0143 83.5813 81.393 86.056C79.7717 88.5307 78.1077 90.92 76.401 93.224C75.2063 94.8453 73.6277 96.6373 71.665 98.6C69.7023 100.563 67.6117 102.269 65.393 103.72C63.1743 105.085 61.041 105.768 58.993 105.768ZM87.511 105.768C85.1217 105.768 83.3297 104.915 82.135 103.208C80.9403 101.416 80.343 99.0267 80.343 96.04C80.343 95.6133 80.343 95.1867 80.343 94.76C80.343 94.3333 80.3857 93.9067 80.471 93.48C80.8977 90.2373 81.623 86.568 82.647 82.472C83.7563 78.376 85.0363 74.0667 86.487 69.544C87.3403 66.984 88.407 63.784 89.687 59.944C91.0523 56.0187 92.631 51.8373 94.423 47.4C96.215 42.8773 98.1777 38.3973 100.311 33.96C102.53 29.5227 104.962 25.512 107.607 21.928C110.252 18.2587 113.026 15.3147 115.927 13.096C118.914 10.8773 122.071 9.768 125.399 9.768C128.13 9.768 130.007 10.4507 131.031 11.816C132.055 13.096 132.567 14.632 132.567 16.424C132.567 18.3013 132.226 20.2213 131.543 22.184C130.86 24.0613 130.178 25.64 129.495 26.92C127.959 29.992 125.954 33.448 123.479 37.288C121.004 41.128 118.402 44.712 115.671 48.04C114.05 50.1733 112.044 52.5627 109.655 55.208C107.266 57.8533 105.004 60.2853 102.871 62.504C100.823 64.7227 99.3297 66.2587 98.391 67.112L96.343 73C95.7457 74.6213 95.1483 76.5413 94.551 78.76C94.039 80.9787 93.5697 83.1973 93.143 85.416C92.8017 87.5493 92.503 89.4267 92.247 91.048C92.1617 91.3893 92.119 91.7307 92.119 92.072C92.119 92.4133 92.119 92.712 92.119 92.968C92.119 95.528 93.1003 96.808 95.063 96.808C96.2577 96.808 97.751 96.2533 99.543 95.144C101.25 94.12 102.871 92.7973 104.407 91.176C106.028 89.4693 107.18 88.1893 107.863 87.336C109.57 85.1173 111.191 82.7707 112.727 80.296C114.263 77.736 115.586 75.3893 116.695 73.256C117.122 72.5733 117.42 72.232 117.591 72.232C118.103 72.232 118.359 72.9573 118.359 74.408C118.359 75.0907 118.231 75.9013 117.975 76.84C117.804 77.6933 117.506 78.504 117.079 79.272C115.884 81.32 114.476 83.5813 112.855 86.056C111.234 88.5307 109.57 90.92 107.863 93.224C106.583 94.9307 104.791 96.7653 102.487 98.728C100.183 100.691 97.7083 102.355 95.063 103.72C92.4177 105.085 89.9003 105.768 87.511 105.768ZM100.951 59.816C105.218 54.7813 109.527 49.4053 113.879 43.688C118.316 37.8853 121.986 31.9973 124.887 26.024C125.058 25.5973 125.442 24.744 126.039 23.464C126.636 22.184 127.191 20.776 127.703 19.24C128.215 17.6187 128.471 16.2533 128.471 15.144C128.471 13.6933 127.916 12.968 126.807 12.968H125.911C124.802 12.968 123.479 13.736 121.943 15.272C120.492 16.808 118.999 18.856 117.463 21.416C115.5 24.6587 113.58 28.4133 111.703 32.68C109.826 36.8613 107.991 41.2987 106.199 45.992C104.407 50.6853 102.658 55.2933 100.951 59.816Z" fill="black"/>
<circle cx="149.5" cy="81.5" r="27.7344" fill="black"/>
<path d="M144.313 88.8516C144.539 87.9064 144.865 86.848 145.291 85.6765C145.717 84.505 146.19 83.2869 146.709 82.0222H145.611C145.504 82.0222 145.451 81.9823 145.451 81.9024C145.451 81.8226 145.511 81.7161 145.631 81.5829C145.75 81.4365 145.89 81.31 146.05 81.2035C146.21 81.097 146.343 81.0438 146.449 81.0438H147.128C147.554 80.0187 147.98 79.0402 148.406 78.1084C148.832 77.1765 149.278 76.3644 149.744 75.6722C149.039 75.7654 148.313 75.9118 147.567 76.1115C146.822 76.2979 146.156 76.5375 145.571 76.8304C144.985 77.1099 144.572 77.4494 144.333 77.8488C144.319 77.8887 144.293 77.9087 144.253 77.9087C144.226 77.9087 144.199 77.8821 144.173 77.8288C144.159 77.7756 144.159 77.7157 144.173 77.6491C144.306 77.303 144.472 76.9702 144.672 76.6507C144.872 76.3312 145.065 76.0782 145.251 75.8918C145.544 75.5857 145.943 75.366 146.449 75.2329C146.955 75.0997 147.474 75.0132 148.007 74.9733C148.553 74.9333 149.019 74.9134 149.405 74.9134H153.358C153.824 74.9134 154.237 74.9001 154.596 74.8734C154.969 74.8335 155.282 74.8135 155.535 74.8135C155.948 74.8135 156.187 74.9134 156.254 75.1131C156.267 75.1663 156.274 75.2196 156.274 75.2728C156.287 75.3127 156.294 75.366 156.294 75.4326C156.294 75.6988 156.234 76.005 156.114 76.3511C155.994 76.6839 155.861 77.0101 155.715 77.3296C155.582 77.6358 155.475 77.8887 155.395 78.0884C155.382 78.155 155.342 78.2016 155.275 78.2282C155.222 78.2548 155.169 78.2681 155.116 78.2681C155.049 78.2681 154.989 78.2548 154.936 78.2282C154.896 78.2016 154.883 78.115 154.896 77.9686C154.923 77.8088 154.956 77.6291 154.996 77.4294C155.036 77.2297 155.056 77.0567 155.056 76.9102C155.056 76.4842 154.863 76.1581 154.477 75.9318C154.091 75.6922 153.645 75.5723 153.139 75.5723C152.766 75.5723 152.46 75.6056 152.22 75.6722C151.994 75.7254 151.801 75.8652 151.641 76.0915C151.228 76.664 150.809 77.4028 150.383 78.3081C149.957 79.2133 149.551 80.1252 149.165 81.0438H153.598C153.638 81.0438 153.611 81.1237 153.518 81.2834C153.438 81.4432 153.332 81.6096 153.199 81.7826C153.079 81.9424 152.972 82.0222 152.879 82.0222H148.746C148.599 82.3817 148.413 82.8476 148.187 83.4201C147.974 83.9792 147.761 84.5782 147.548 85.2172C147.335 85.8562 147.155 86.462 147.008 87.0344C146.875 87.5935 146.809 88.0528 146.809 88.4122C146.809 88.6119 146.835 88.7584 146.889 88.8516H144.313Z" fill="white"/>
<circle cx="149.5" cy="81.5" r="19.1367" stroke="white" stroke-width="1.66406"/>
</svg>
